<?xml version="1.0" standalone="no"?>
<!DOCTYPE svg PUBLIC "-//W3C//DTD SVG 20010904//EN"
 "http://www.w3.org/TR/2001/REC-SVG-20010904/DTD/svg10.dtd">
<svg version="1.0" xmlns="http://www.w3.org/2000/svg"
 width="1024.000000pt" height="1024.000000pt" viewBox="0 0 1024.000000 1024.000000"
 preserveAspectRatio="xMidYMid meet">
<metadata>
Created by potrace 1.11, written by Peter Selinger 2001-2013
</metadata>
<g transform="translate(0.000000,1024.000000) scale(0.100000,-0.100000)"
fill="#000000" stroke="none">
<path d="M7670 9458 c-30 -3 -79 -9 -107 -13 -57 -6 -169 -34 -273 -67 -177
-56 -394 -188 -554 -337 -88 -83 -180 -183 -204 -223 -9 -16 -20 -28 -24 -28
-4 0 -8 -6 -8 -14 0 -8 -4 -16 -8 -18 -5 -1 -25 -29 -45 -61 -111 -173 -189
-391 -221 -612 -17 -120 -18 -333 -1 -420 7 -38 14 -71 14 -73 5 -26 34 -121
41 -134 6 -10 10 -23 10 -30 0 -10 38 -113 60 -163 78 -175 184 -376 312 -590
56 -93 246 -384 258 -395 3 -3 15 -20 28 -37 l23 -33 -78 0 c-377 -2 -863 -9
-883 -13 -14 -2 -47 -8 -75 -12 -92 -14 -219 -46 -285 -72 -8 -3 -18 -6 -22
-5 -16 3 -280 -137 -343 -183 -325 -231 -574 -580 -652 -910 -7 -33 -15 -64
-17 -70 -1 -5 -6 -32 -10 -60 -4 -27 -10 -61 -13 -75 -10 -45 -12 -384 -3
-440 5 -30 11 -71 13 -90 3 -19 10 -57 17 -85 6 -27 14 -60 16 -72 15 -78 104
-285 155 -361 16 -24 29 -46 29 -49 0 -21 123 -174 215 -267 165 -168 286
-257 475 -348 68 -33 202 -85 240 -93 8 -2 35 -8 60 -14 25 -5 59 -12 75 -15
17 -3 62 -10 100 -17 50 -8 344 -12 1005 -14 942 -2 997 -4 1035 -37 5 -4 15
-8 22 -8 18 0 121 -67 165 -108 50 -46 114 -146 140 -218 28 -79 32 -223 9
-309 -42 -151 -149 -278 -296 -352 -51 -26 -82 -35 -160 -48 -5 -1 -902 -3
-1992 -3 l-1982 -2 -83 -121 c-116 -168 -417 -578 -483 -656 -5 -7 -19 -24
-30 -39 -11 -14 -24 -31 -30 -37 -5 -7 -28 -35 -50 -62 -21 -28 -42 -52 -45
-55 -13 -12 -90 -109 -90 -113 0 -7 4891 -2 4915 5 11 3 43 9 70 12 28 4 68
12 90 18 22 5 51 12 65 15 14 3 30 6 35 7 75 15 270 99 380 164 30 17 129 87
152 107 6 5 26 21 45 35 92 69 269 267 347 391 22 35 44 69 49 74 21 27 107
237 133 328 74 253 85 611 27 832 -5 22 -12 51 -14 63 -9 49 -66 209 -97 272
-87 179 -219 358 -361 489 -21 20 -48 45 -60 57 -12 11 -48 41 -81 66 -184
138 -360 220 -580 272 -197 47 -211 48 -1230 50 -885 2 -890 2 -956 24 -266
88 -427 359 -372 627 41 199 218 379 412 420 54 11 224 14 906 15 l840 0 47
53 c26 28 51 57 55 62 4 6 24 29 43 51 99 115 137 159 155 182 11 14 29 34 40
46 11 12 40 46 65 76 25 30 47 57 50 60 49 48 416 538 462 617 12 21 25 40 28
43 16 14 234 360 302 480 24 41 48 84 55 95 7 11 55 106 107 210 93 187 186
433 201 535 19 124 22 159 19 255 -5 244 -57 463 -158 675 -30 62 -129 220
-166 264 -118 141 -207 228 -322 319 -48 37 -89 67 -92 67 -3 0 -24 13 -48 28
-66 44 -218 119 -257 127 -9 2 -29 8 -46 15 -48 18 -206 58 -255 64 -25 3 -63
8 -85 12 -60 9 -302 11 -365 2z m335 -1108 c79 -30 126 -62 200 -135 83 -82
111 -123 142 -202 37 -96 40 -240 9 -333 -32 -94 -72 -156 -145 -228 -170
-168 -428 -204 -631 -89 -30 17 -61 37 -67 43 -7 7 -23 21 -36 31 -76 60 -161
211 -173 307 -12 102 -12 115 1 190 34 196 203 377 401 431 76 20 226 13 299
-15z"/>
<path d="M2238 5114 c-2 -1 -25 -5 -53 -8 -82 -11 -116 -17 -200 -38 -85 -21
-284 -97 -341 -129 -19 -10 -51 -28 -71 -40 -75 -42 -230 -165 -319 -254 -179
-178 -305 -370 -384 -586 -34 -93 -75 -272 -86 -369 -10 -95 -12 -279 -3 -320
4 -19 10 -48 12 -65 21 -138 149 -461 266 -670 98 -174 203 -348 336 -557 61
-95 112 -177 114 -182 2 -6 12 -19 23 -30 10 -11 18 -25 18 -32 0 -7 4 -14 8
-16 5 -2 36 -43 69 -93 49 -73 204 -287 240 -330 4 -6 26 -33 48 -60 21 -28
42 -52 45 -55 3 -3 28 -32 55 -65 28 -33 52 -62 55 -65 3 -3 32 -36 65 -75 33
-38 72 -83 87 -100 58 -64 75 -83 127 -142 l54 -62 26 32 c14 18 28 34 31 37
3 3 30 34 60 70 30 36 61 72 70 81 8 9 33 37 55 64 22 26 49 58 60 70 11 13
38 45 60 71 22 26 47 55 55 64 16 17 129 157 222 275 104 133 339 474 455 660
312 502 451 798 513 1095 19 92 25 331 9 413 -4 24 -10 62 -13 83 -6 57 -42
193 -73 276 -106 294 -321 571 -594 764 -113 79 -111 78 -218 130 -149 72
-288 116 -456 145 -58 10 -419 21 -427 13z m292 -1096 c19 -5 49 -16 67 -24
17 -8 34 -14 38 -14 18 0 138 -95 178 -141 146 -167 172 -417 64 -609 -69
-121 -224 -239 -354 -270 -55 -12 -176 -16 -209 -7 -10 4 -35 9 -54 12 -70 11
-180 75 -247 142 -34 35 -63 70 -63 78 0 7 -4 15 -8 17 -17 7 -62 120 -73 183
-11 67 -7 181 9 245 9 35 50 126 64 145 5 6 27 34 51 63 62 79 165 145 277
178 51 14 206 16 260 2z"/>
</g>
</svg>
